<?xml version="1.0"?>
<svg xmlns="http://www.w3.org/2000/svg" id="Layer_1" data-name="Layer 1" viewBox="0 0 512 512" width="512" height="512"><path d="M240.8,406.481a6,6,0,0,0,6.884-2.778l48.379-84.43a6,6,0,0,0-5.628-8.968l-14.03.989,7.355-22.078a6,6,0,0,0-5.693-7.9H239.71a6,6,0,0,0-5.922,5.033l-10.5,64.28a6,6,0,0,0,5.918,6.967l9.269.006-1.988,42.836A6,6,0,0,0,240.8,406.481ZM236.269,345.6l8.541-52.284h24.937l-7.559,22.694A6,6,0,0,0,268.3,323.9l11.76-.83-30.436,53.117,1.127-24.3a6,6,0,0,0-5.989-6.278Z"/><path d="M256,246.15a95.045,95.045,0,1,0,82.9,141.56,6,6,0,1,0-10.46-5.879,82.668,82.668,0,1,1,7.714-18.841,6,6,0,0,0,11.582,3.14A95.117,95.117,0,0,0,256,246.15Z"/><path d="M489.39,183.08h-6.93v-3.66a50.041,50.041,0,0,0-49.98-49.99H358.59V117.41a65.454,65.454,0,0,0-65.38-65.38H207.79a65.454,65.454,0,0,0-65.38,65.38v12.02H79.52a50.041,50.041,0,0,0-49.98,49.99v3.66H22.61a6,6,0,0,0-6,6v41.85a6,6,0,0,0,6,6h6.93V409.98a50.042,50.042,0,0,0,49.98,49.99H432.48a50.042,50.042,0,0,0,49.98-49.99V236.93h6.93a6,6,0,0,0,6-6V189.08A6,6,0,0,0,489.39,183.08ZM154.41,117.41a53.44,53.44,0,0,1,53.38-53.38h85.42a53.44,53.44,0,0,1,53.38,53.38v12.02H327.8V117.41a34.629,34.629,0,0,0-34.59-34.59H207.79a34.629,34.629,0,0,0-34.59,34.59v12.02H154.41Zm161.39,0v12.02H185.2V117.41a22.616,22.616,0,0,1,22.59-22.59h85.42A22.616,22.616,0,0,1,315.8,117.41ZM470.46,409.98a38.027,38.027,0,0,1-37.98,37.99H79.52a38.027,38.027,0,0,1-37.98-37.99V236.93h46.6v19.53a6,6,0,0,0,2.318,4.737l26.48,20.58a6,6,0,0,0,7.364,0l26.479-20.58a6,6,0,0,0,2.319-4.737V236.93H347.91v19.53a6,6,0,0,0,2.433,4.824l26.479,19.58a6,6,0,0,0,7.135,0l26.481-19.58a6,6,0,0,0,2.432-4.824V236.93h57.59ZM100.14,253.524V221.18H141.1v32.344l-20.48,15.917Zm259.77-.089V221.18h40.96v32.255l-20.48,15.143Zm123.48-28.5H412.87v-9.75a6,6,0,0,0-6-6H353.91a6,6,0,0,0-6,6v9.75H153.1v-9.75a6,6,0,0,0-6-6H94.14a6,6,0,0,0-6,6v9.75H28.61V195.08h87.065a6,6,0,0,0,0-12H41.54v-3.66a38.027,38.027,0,0,1,37.98-37.99H432.48a38.027,38.027,0,0,1,37.98,37.99v3.66H145.67a6,6,0,0,0,0,12H483.39Z"/><path d="M64,312.67a6,6,0,0,0-6,6v96.06a6,6,0,0,0,12,0V318.67A6,6,0,0,0,64,312.67Z"/><path d="M64,288a6,6,0,0,0-6,6v7.05a6,6,0,0,0,12,0V294A6,6,0,0,0,64,288Z"/></svg>
