<svg id="Layer_1" height="512" viewBox="0 0 512 512" width="512" xmlns="http://www.w3.org/2000/svg" data-name="Layer 1"><path d="m337.3 465.752a117.833 117.833 0 0 1 -50.169 11.107 119.566 119.566 0 0 1 -80.231-31.083 6 6 0 1 0 -8.045 8.9 131.543 131.543 0 0 0 88.273 34.179 129.733 129.733 0 0 0 55.241-12.232 6 6 0 1 0 -5.072-10.875z"/><path d="m392.5 425.954a6 6 0 0 0 -8.387 1.293 123 123 0 0 1 -14.189 16.164 6 6 0 1 0 8.29 8.675 135.008 135.008 0 0 0 15.586-17.746 6 6 0 0 0 -1.3-8.386z"/><path d="m402.214 302.793-110.209-153.555a6 6 0 0 0 -4.871-2.5 6 6 0 0 0 -4.87 2.5l-110.213 153.131q-.168.234-.314.483a114.384 114.384 0 0 0 -13.442 82.1 6 6 0 1 0 11.748-2.443 102.546 102.546 0 0 1 11.919-73.371l105.162-146.121 105.176 146.545c16.412 28.167 18.658 60.688 6.318 91.6a6 6 0 1 0 11.145 4.449c13.778-34.516 11.2-70.866-7.248-102.355-.093-.156-.193-.312-.301-.463z"/><path d="m345.688 181.8a6 6 0 0 0 6-6v-15.06a6 6 0 0 0 -12 0v15.06a6 6 0 0 0 6 6z"/><path d="m345.688 134.952a6 6 0 0 0 6-6v-78.635a6 6 0 0 0 -12 0v78.635a6 6 0 0 0 6 6z"/><path d="m345.688 31.221a6 6 0 0 0 6-6v-14.221a6 6 0 0 0 -12 0v14.221a6 6 0 0 0 6 6z"/><path d="m306.37 131.6a6 6 0 0 0 6-6v-34.3a6 6 0 1 0 -12 0v34.3a6 6 0 0 0 6 6z"/><path d="m306.37 64.683a6 6 0 0 0 6-6v-23.423a6 6 0 1 0 -12 0v23.423a6 6 0 0 0 6 6z"/><path d="m267.053 123.24a6 6 0 0 0 6-6v-11.913a6 6 0 0 0 -12 0v11.913a6 6 0 0 0 6 6z"/><path d="m267.053 91.2a6 6 0 0 0 6-6v-55.8a6 6 0 1 0 -12 0v55.8a6 6 0 0 0 6 6z"/><path d="m227.736 182.9a6 6 0 0 0 6-6v-.332a6 6 0 1 0 -12 0v.332a6 6 0 0 0 6 6z"/><path d="m227.736 161.293a6 6 0 0 0 6-6v-77.37a6 6 0 0 0 -12 0v77.37a6 6 0 0 0 6 6z"/><path d="m227.736 58.827a6 6 0 0 0 6-6v-33.462a6 6 0 0 0 -12 0v33.462a6 6 0 0 0 6 6z"/><path d="m139.141 441.17-17.615 4.72a6 6 0 0 0 -4.243 4.243l-4.72 17.615a6 6 0 0 0 1.553 5.8l12.895 12.895a6 6 0 0 0 5.8 1.553l17.615-4.72a6 6 0 0 0 4.243-4.242l4.72-17.615a6 6 0 0 0 -1.553-5.8l-12.895-12.895a6 6 0 0 0 -5.8-1.554zm4.829 31.407-10.923 2.923-8-8 2.927-10.924 10.923-2.926 8 8z"/><path d="m224.209 397.123-6.224 6.224a6 6 0 0 0 8.486 8.485l6.224-6.224a6 6 0 0 0 -8.486-8.485z"/><path d="m215.008 423.294a6 6 0 0 0 -8.485-8.485l-32.011 32.011a42.655 42.655 0 0 0 -20.777-20.777l87.737-87.738a58.869 58.869 0 0 0 18.794 22.761l-24.97 24.97a6 6 0 0 0 8.485 8.485l27.265-27.265a58.459 58.459 0 0 0 67.945-15.532 5.988 5.988 0 0 0 2.487-4.669l.01-.311a6 6 0 0 0 -7.9-5.886h-35.874l-18.663-27.177 18.663-27.181h37.262a6 6 0 0 0 6-6v-.321a6 6 0 0 0 -1.382-3.825 58.521 58.521 0 0 0 -102.358 49.216l-96.824 96.824a43.266 43.266 0 0 0 -4.438-.232 42.419 42.419 0 1 0 42.419 42.419 43 43 0 0 0 -.233-4.439zm79.524-156.127a46.393 46.393 0 0 1 25.089 7.336h-25.065a6 6 0 0 0 -4.946 2.6l-22.784 33.178a6 6 0 0 0 0 6.793l22.784 33.177a6 6 0 0 0 4.946 2.6h25.08a46.52 46.52 0 1 1 -25.1-85.691zm-137.048 218.923a30.42 30.42 0 1 1 8.909-21.509 30.22 30.22 0 0 1 -8.909 21.509z"/></svg>