<svg id="Layer_1" height="512" viewBox="0 0 512 512" width="512" xmlns="http://www.w3.org/2000/svg" data-name="Layer 1"><path d="m192.433 336.808a110.337 110.337 0 0 0 -16.783-23.832c-9.16-9.9-18.017-15.617-26.325-16.978a21.256 21.256 0 0 0 -19.1 6.3 26.928 26.928 0 0 0 -7.455 14.135c-1.442 7.7.675 14 2.154 16.5 1.654 2.807 3.567 5.691 5.593 8.745a151.1 151.1 0 0 1 12.266 21.014c4.425 9.69 6.8 18.982 8.892 27.179.9 3.508 1.742 6.821 2.676 9.871a25.538 25.538 0 0 0 18.311 17.523 24.915 24.915 0 0 0 23.832-6.691c8.315-8.315 8.4-24.195 7-36.053-1.589-13.553-5.826-27.991-11.061-37.713zm-4.424 65.282a12.875 12.875 0 0 1 -12.446 3.532 13.634 13.634 0 0 1 -9.737-9.393c-.851-2.779-1.663-5.959-2.523-9.326-2.109-8.255-4.732-18.528-9.6-29.195-4.091-8.958-8.921-16.239-13.182-22.663-1.935-2.917-3.763-5.672-5.247-8.19a14.187 14.187 0 0 1 -.7-8.214 14.968 14.968 0 0 1 4.145-7.859 9.4 9.4 0 0 1 6.88-3.094 11.114 11.114 0 0 1 1.794.152c12.113 1.985 28 21.6 34.345 34.4.032.063.064.125.1.187 9.537 17.65 14.346 51.489 6.171 59.663z"/><path d="m488.552 59.823-84.963-39.938a6 6 0 0 0 -6.54.948l-234.264 208.4a39.524 39.524 0 0 0 -23.642 11.529c-16.212 16.369-34.513 36.011-47.875 50.353-7.4 7.938-14.4 15.457-16.17 17.122-38.638 22.008-54.036 59.929-54.675 61.538a6 6 0 0 0 1.136 6.248c9.152 10.076 25.907 5.374 42.111.827 9.467-2.658 22.429-6.3 26.313-3.463 2.094 1.527 3.95 11.133 5.058 16.872 1.541 7.975 3.133 16.221 6.466 22.922 6.891 13.86 15.921 20.225 22.514 24.873 3.732 2.631 6.679 4.708 8.255 7.3 1.638 2.687 1.687 11.363 1.72 17.105.05 8.8.195 14.392 2.441 18.156 5.319 8.914 24.4 11.471 30.12 12.043a5.992 5.992 0 0 0 4.839-1.728l60.977-60.977a39.972 39.972 0 0 0 11.651-28.586l21.55-4.036a6 6 0 0 0 4.874-6.408l-1.866-21.876 18.27-.893a6 6 0 0 0 5.686-6.5l-1.884-22.085 17.9-1.345a6 6 0 0 0 5.529-6.492l-1.87-21.926 18.327-.9a6 6 0 0 0 5.686-6.5l-1.871-21.925 18.328-.9a6 6 0 0 0 5.685-6.5l-1.883-22.084 17.9-1.346a6 6 0 0 0 5.529-6.493l-1.87-21.926 18.327-.9a6 6 0 0 0 5.685-6.5l-1.869-21.926 18.327-.9a6 6 0 0 0 5.685-6.5l-1.87-21.926 18.327-.9a6 6 0 0 0 5.686-6.5l-1.87-21.926 18.327-.9a6 6 0 0 0 5.685-6.5l-1.869-21.925 18.327-.9a6 6 0 0 0 5.694-6.394l-1.7-25.305 1.863-2.485a6 6 0 0 0 -2.248-9.03zm-264.665 361.642-58.915 58.915c-8.441-1.182-16.81-3.826-18.2-5.873-.716-1.684-.751-7.956-.775-12.12-.05-8.725-.1-17.747-3.472-23.28-2.873-4.715-7.107-7.7-11.589-10.86-6.16-4.343-13.143-9.265-18.683-20.408-2.6-5.238-4.041-12.669-5.429-19.855-2.071-10.722-3.86-19.982-9.769-24.292-8.588-6.262-22.206-2.441-36.626 1.605-9.393 2.636-20.662 5.8-26.748 4.372 5.139-10.264 19.99-35.586 47.784-51.246 1.422-.8 2.233-1.578 18.583-19.127 13.31-14.285 31.539-33.85 47.622-50.089a27.656 27.656 0 0 1 19.717-8.252h.07a27.672 27.672 0 0 1 19.522 7.987c7.615 9.056 27.533 33.7 31.041 42.341 10.064 24.779 13.578 104.627 13.612 105.43 0 .034.008.067.01.1.008.135.024.272.041.408.008.059.009.119.018.178a27.931 27.931 0 0 1 -7.814 24.066zm235.983-329.217a6.191 6.191 0 0 0 -4.022 1.823 6 6 0 0 0 -1.716 4.733l1.868 21.875-18.269.893a6.192 6.192 0 0 0 -4.022 1.823 6 6 0 0 0 -1.717 4.733l1.862 21.872-18.27.893a6.2 6.2 0 0 0 -4.022 1.823 6 6 0 0 0 -1.716 4.733l1.866 21.876-18.27.893a6.193 6.193 0 0 0 -4.022 1.822 6 6 0 0 0 -1.716 4.733l1.865 21.876-18.27.893a6.191 6.191 0 0 0 -4 1.8 6 6 0 0 0 -1.735 4.753l1.879 22.035-17.843 1.348a6.194 6.194 0 0 0 -3.846 1.793 6 6 0 0 0 -1.735 4.752l1.865 21.876-18.27.893a6.191 6.191 0 0 0 -3.983 1.783 6 6 0 0 0 -1.755 4.772l1.865 21.876-18.27.893a6.188 6.188 0 0 0 -4 1.8 6 6 0 0 0 -1.736 4.752l1.879 22.037-17.842 1.34a6.192 6.192 0 0 0 -3.865 1.813 6 6 0 0 0 -1.716 4.733l1.865 21.876-18.27.893a6 6 0 0 0 -5.685 6.5l1.933 22.667-14.751 2.762c-1.107-20.473-5.032-80.1-14.142-102.527-4.886-12.029-30.275-42.344-33.155-45.761-.109-.131-.225-.256-.345-.377a39.663 39.663 0 0 0 -16.449-9.925l222.875-198.269 75.023 35.265a5.959 5.959 0 0 0 -.275 2.224l1.437 21.431z"/></svg>