<?xml version="1.0"?>
<svg xmlns="http://www.w3.org/2000/svg" id="Layer_1" data-name="Layer 1" viewBox="0 0 512 512" width="512" height="512"><path d="M491.422,83.774A6,6,0,0,0,486,80.344H243.305a25.821,25.821,0,0,0-23.871,16.049H193.513a6,6,0,0,0-6,6v15.6H174.946v-7.849a6,6,0,0,0-6-6H129.729a45.63,45.63,0,0,0-45.164,39.57H26a6,6,0,0,0,0,12H84.565a45.631,45.631,0,0,0,45.164,39.57h39.217a6,6,0,0,0,6-6v-7.849h12.567v15.6a6,6,0,0,0,6,6h25.921a25.823,25.823,0,0,0,23.871,16.049h75.448v34.992a6,6,0,0,0,6,6h18.952l15.731,62.288c.56,3.429,1.47,13.478-1.071,18.747-2.552,5.293-8.765,11.826-12.338,15.237H330.688a37.656,37.656,0,0,0,0,75.312H451.376a6,6,0,0,0,6-6V362.344a6,6,0,0,0-6-6h-14.74L416.729,242.176c-.016-.088-.041-.207-.059-.293a29.576,29.576,0,0,1,.73-13.469c1.307-4.25,5.523-8.679,7.461-10.423a47.635,47.635,0,0,0,37.461-46.47V126.132a3.859,3.859,0,0,1,.869-2.436l27.453-33.552A6,6,0,0,0,491.422,83.774ZM162.946,123.712H154a6,6,0,1,0,0,12h8.946v8H154a6,6,0,0,0,0,12h8.946v8H154a6,6,0,0,0,0,12h8.946v7.57H129.729a33.6,33.6,0,0,1-33.539-32.32,5.985,5.985,0,0,0,0-2.5,33.6,33.6,0,0,1,33.539-32.32h33.217Zm24.567,45.721H174.946V129.991h12.567Zm30.007,21.6H199.513V108.393H217.52ZM431.585,368.345h13.791v51.312H330.688a25.656,25.656,0,0,1,0-51.312h100.9Zm-7.13-12H362.438a51.811,51.811,0,0,0,6.736-10.025c4.716-9.778,2.336-24.565,2.05-26.219-.027-.15-.058-.3-.095-.444l-16.2-64.05a9.971,9.971,0,0,0-3.775-5.6h0a9.97,9.97,0,0,0-5.89-1.928l-14.511-.006V219.08h77.8a27.434,27.434,0,0,0-2.623,5.809,41.665,41.665,0,0,0-1,19.462ZM453.9,116.1a15.894,15.894,0,0,0-3.581,10.034v45.389a35.6,35.6,0,0,1-35.558,35.559H243.305A13.8,13.8,0,0,1,229.52,193.3V106.129a13.8,13.8,0,0,1,13.785-13.785H473.339Z"/><path d="M252.538,191.325h96.616a6,6,0,0,0,6-6V114.1a6,6,0,0,0-6-6H252.538a6,6,0,0,0-6,6v71.226A6,6,0,0,0,252.538,191.325Zm90.616-12H324.2l18.952-20.7Zm0-59.226V140.86l-35.221,38.465H281.665L335.9,120.1Zm-84.616,0h19.7l-19.7,20.98Zm0,38.509L294.7,120.1h24.923L265.4,179.325h-6.858Z"/><path d="M380.2,131.825h45.388a6,6,0,1,0,0-12H380.2a6,6,0,0,0,0,12Z"/><path d="M380.2,155.6h45.388a6,6,0,0,0,0-12H380.2a6,6,0,0,0,0,12Z"/><path d="M380.2,179.6h45.388a6,6,0,0,0,0-12H380.2a6,6,0,0,0,0,12Z"/></svg>
